<svg xmlns="http://www.w3.org/2000/svg" width="70" height="70" fill="none"><g fill="#316DC2" clip-path="url(#a)"><path fill-rule="evenodd" d="M22.387 3.279a25.894 25.894 0 0 1 25.581.203c7.793 4.662 12.53 12.983 12.486 21.933-.182 8.892-5.26 17.25-11.609 23.711a67.543 67.543 0 0 1-12.213 9.87c-.459.255-.96.426-1.481.504a3.067 3.067 0 0 1-1.421-.415A66.36 66.36 0 0 1 16.135 43.17a31.707 31.707 0 0 1-6.59-18.198C9.54 16.003 14.442 7.722 22.387 3.279Zm4.591 25.403c1.337 3.171 4.491 5.24 7.991 5.24a8.675 8.675 0 0 0 6.12-2.455 8.335 8.335 0 0 0 2.526-5.992c.012-3.432-2.086-6.532-5.316-7.853-3.23-1.322-6.954-.604-9.433 1.818s-3.224 6.07-1.888 9.242Z" clip-rule="evenodd"/><path d="M53.181 66.5c0 1.933-8.14 3.5-18.181 3.5-10.042 0-18.182-1.567-18.182-3.5S24.958 63 35 63c10.041 0 18.181 1.567 18.181 3.5Z"/></g><defs><clipPath id="a"><path fill="#fff" d="M0 0h70v70H0z"/></clipPath></defs></svg>